<?xml version="1.0" encoding="utf-8"?>
<!-- Generator: Adobe Illustrator 17.0.0, SVG Export Plug-In . SVG Version: 6.00 Build 0)  -->
<!DOCTYPE svg PUBLIC "-//W3C//DTD SVG 1.1//EN" "http://www.w3.org/Graphics/SVG/1.1/DTD/svg11.dtd">
<svg version="1.1" id="Layer_1" xmlns="http://www.w3.org/2000/svg" xmlns:xlink="http://www.w3.org/1999/xlink" x="0px" y="0px"
	 width="1138px" height="63px" viewBox="0 0 1138 63" enable-background="new 0 0 1138 63" xml:space="preserve">
<g>
	<g opacity="0.6">
		<path opacity="0.8" fill="#FFFFFF" d="M1115.152,27.767c0,0-2.785-22.665-25.848-27.198
			c-23.063-4.533-29.626,19.492-29.626,19.492c-6.499-5.44-11.606-16.092-25.532-16.999c-13.927-0.907-28.318,19.718-28.318,19.718
			C988.615-1.697,973.1,33.207,973.1,33.207s-10.396,2.329-6.974,17.037c2.624,11.28,13.572,12.436,18.544,12.365
			c21.186-1.179,33.093-13.99,33.093-13.99c17.967,26.678,47.522,7.253,47.522,7.253c0.253,0.072,0.55,0.152,0.861,0.234
			l0.019-0.011c12.873,3.198,60.971,11.422,71.271-14.728C1142.207,29.251,1115.152,27.767,1115.152,27.767z"/>
		<g>
			<path opacity="0.8" fill="#EAEAEA" d="M1013.336,30.027c0,0,10.358-22.555,21.425-26.913c-1.868-0.642-7.779,1.175-9.899,2.119
				c-10.298,4.588-13.521,11.691-18.897,17.531C1008.356,24.087,1010.826,26.388,1013.336,30.027z"/>
			<path opacity="0.8" fill="#EAEAEA" d="M989.782,38.012c0,0-8.585-15.945,5.763-23.684c-11.73-2.324-19.685,13.327-22.446,18.879
				C976.099,32.539,984.363,33.587,989.782,38.012z"/>
			<path opacity="0.8" fill="#EAEAEA" d="M1068.558,29.046c0,0-2.931-24.636,10.193-28.525c-0.479-0.117-11.783,1.136-19.026,19.246
				C1063.017,23,1065.649,26.564,1068.558,29.046z"/>
			<path opacity="0.8" fill="#EAEAEA" d="M1026.01,42.726c0,0-2.804,3.061-8.061,6.329c8.061,11.692,25.347,20.907,47.335,6.817
				C1058.973,54.438,1031.356,50.821,1026.01,42.726z"/>
			<path opacity="0.8" fill="#EAEAEA" d="M1137.435,41.366c4.548-11.547-19.798-13.435-22.093-13.587
				c0.002,0.003,20.834,28.876-50.058,28.092C1076.703,58.878,1126.89,68.139,1137.435,41.366z"/>
			<path opacity="0.8" fill="#EAEAEA" d="M966.125,50.243c-3.422-14.707,6.974-17.037,6.974-17.037
				c-25.532-8.613-20.843,15.639-20.843,15.639s2.9,14.722,31.056,13.854c0.465-0.014,0.9-0.066,1.357-0.091
				C979.698,62.68,968.75,61.523,966.125,50.243z"/>
		</g>
	</g>
	<g>
		<path opacity="0.8" fill="#FFFFFF" d="M41.247,36.015c0,0-0.704-5.756-6.532-6.907c-5.828-1.151-7.486,4.95-7.486,4.95
			c-1.642-1.381-2.933-4.087-6.452-4.317c-3.519-0.23-7.156,5.008-7.156,5.008c-4.349-6.217-8.27,2.648-8.27,2.648
			s-2.627,0.592-1.762,4.327c0.663,2.865,3.43,3.158,4.686,3.14c5.353-0.3,8.362-3.553,8.362-3.553
			c4.54,6.775,12.008,1.842,12.008,1.842c0.064,0.018,0.139,0.039,0.217,0.059l0.005-0.003c3.253,0.812,15.407,2.901,18.009-3.74
			C48.084,36.391,41.247,36.015,41.247,36.015z"/>
		<g>
			<path opacity="0.8" fill="#EAEAEA" d="M15.519,36.589c0,0,2.617-5.728,5.414-6.835c-0.472-0.163-1.966,0.298-2.501,0.538
				c-2.602,1.165-3.417,2.969-4.775,4.452C14.261,35.08,14.885,35.664,15.519,36.589z"/>
			<path opacity="0.8" fill="#EAEAEA" d="M9.568,38.617c0,0-2.169-4.049,1.456-6.015c-2.964-0.59-4.974,3.385-5.672,4.795
				C6.11,37.226,8.198,37.493,9.568,38.617z"/>
			<path opacity="0.8" fill="#EAEAEA" d="M29.474,36.339c0,0-0.741-6.257,2.576-7.244c-0.121-0.03-2.977,0.288-4.808,4.888
				C28.073,34.804,28.739,35.709,29.474,36.339z"/>
			<path opacity="0.8" fill="#EAEAEA" d="M18.722,39.814c0,0-0.709,0.777-2.037,1.607c2.037,2.969,6.405,5.31,11.961,1.731
				C27.051,42.788,20.073,41.869,18.722,39.814z"/>
			<path opacity="0.8" fill="#EAEAEA" d="M46.878,39.468c1.149-2.933-5.003-3.412-5.583-3.451c0,0,5.265,7.333-12.649,7.135
				C31.532,43.916,44.213,46.268,46.878,39.468z"/>
			<path opacity="0.8" fill="#EAEAEA" d="M3.59,41.723c-0.865-3.735,1.762-4.327,1.762-4.327c-6.452-2.187-5.267,3.972-5.267,3.972
				s0.733,3.739,7.847,3.518c0.118-0.004,0.228-0.017,0.343-0.023C7.02,44.881,4.253,44.588,3.59,41.723z"/>
		</g>
	</g>
	<g>
		<path opacity="0.8" fill="#FFFFFF" d="M345.877,38.937c0,0-1.438-11.872-13.341-14.247c-11.904-2.374-15.291,10.21-15.291,10.21
			c-3.354-2.849-5.99-8.429-13.178-8.904c-7.188-0.475-14.616,10.329-14.616,10.329c-8.884-12.822-16.892,5.461-16.892,5.461
			s-5.366,1.22-3.6,8.924c1.354,5.908,7.005,6.514,9.571,6.477c10.935-0.618,17.081-7.328,17.081-7.328
			c9.273,13.974,24.528,3.799,24.528,3.799c0.13,0.038,0.284,0.08,0.444,0.122l0.01-0.006c6.644,1.675,31.469,5.983,36.785-7.715
			C359.841,39.714,345.877,38.937,345.877,38.937z"/>
		<g>
			<path opacity="0.8" fill="#EAEAEA" d="M293.326,40.121c0,0,5.346-11.814,11.058-14.098c-0.964-0.336-4.015,0.615-5.109,1.11
				c-5.315,2.403-6.979,6.124-9.753,9.183C290.755,37.009,292.031,38.215,293.326,40.121z"/>
			<path opacity="0.8" fill="#EAEAEA" d="M281.169,44.304c0,0-4.431-8.352,2.975-12.406c-6.054-1.217-10.16,6.981-11.585,9.889
				C274.107,41.437,278.372,41.985,281.169,44.304z"/>
			<path opacity="0.8" fill="#EAEAEA" d="M321.828,39.607c0,0-1.513-12.905,5.261-14.942c-0.247-0.061-6.082,0.595-9.82,10.081
				C318.968,36.44,320.327,38.307,321.828,39.607z"/>
			<path opacity="0.8" fill="#EAEAEA" d="M299.867,46.773c0,0-1.447,1.603-4.16,3.315c4.161,6.124,13.082,10.951,24.431,3.571
				C316.88,52.907,302.627,51.013,299.867,46.773z"/>
			<path opacity="0.8" fill="#EAEAEA" d="M357.377,46.06c2.348-6.049-10.219-7.037-11.403-7.117
				c0.001,0.001,10.753,15.125-25.836,14.715C326.031,55.233,351.935,60.084,357.377,46.06z"/>
			<path opacity="0.8" fill="#EAEAEA" d="M268.959,50.71c-1.766-7.704,3.6-8.924,3.6-8.924c-13.178-4.511-10.758,8.192-10.758,8.192
				s1.497,7.712,16.029,7.257c0.24-0.008,0.465-0.034,0.7-0.048C275.964,57.225,270.314,56.619,268.959,50.71z"/>
		</g>
	</g>
</g>
</svg>
