<?xml version="1.0" encoding="utf-8"?>
<!-- Generator: Adobe Illustrator 17.0.0, SVG Export Plug-In . SVG Version: 6.00 Build 0)  -->
<!DOCTYPE svg PUBLIC "-//W3C//DTD SVG 1.1//EN" "http://www.w3.org/Graphics/SVG/1.1/DTD/svg11.dtd">
<svg version="1.1" id="Layer_1" xmlns="http://www.w3.org/2000/svg" xmlns:xlink="http://www.w3.org/1999/xlink" x="0px" y="0px"
	 width="40px" height="40px" viewBox="0 0 40 40" enable-background="new 0 0 40 40" xml:space="preserve">
<g>
	<g>
		<g>
			<path fill="#FFFFFF" d="M20.001,0C8.957,0,0.003,8.954,0.003,19.999C0,31.048,8.954,40,20.001,40
				c11.044,0,19.996-8.954,19.996-19.999C40,8.954,31.046,0,20.001,0z M20.001,37.323c-9.549,0-17.319-7.77-17.319-17.319
				s7.77-17.319,17.319-17.319c9.549-0.003,17.317,7.767,17.317,17.319C37.321,29.551,29.551,37.323,20.001,37.323z"/>
			<path fill="#FFFFFF" d="M27.651,15.618l-7.746,7.749l-7.746-7.749c-0.522-0.522-1.372-0.522-1.894,0
				c-0.522,0.522-0.522,1.372,0,1.894l8.689,8.689c0.263,0.268,0.608,0.391,0.951,0.391c0.346,0,0.689-0.131,0.951-0.391
				l8.686-8.689c0.522-0.522,0.522-1.372,0-1.894C29.02,15.095,28.173,15.095,27.651,15.618z"/>
		</g>
	</g>
</g>
</svg>
