<?xml version="1.0" encoding="utf-8"?>
<!-- Generator: Adobe Illustrator 17.0.0, SVG Export Plug-In . SVG Version: 6.00 Build 0)  -->
<!DOCTYPE svg PUBLIC "-//W3C//DTD SVG 1.1//EN" "http://www.w3.org/Graphics/SVG/1.1/DTD/svg11.dtd">
<svg version="1.1" id="Layer_1" xmlns="http://www.w3.org/2000/svg" xmlns:xlink="http://www.w3.org/1999/xlink" x="0px" y="0px"
	 width="86.22px" height="70px" viewBox="0 0 86.22 70" enable-background="new 0 0 86.22 70" xml:space="preserve">
<g>
	<g>
		<path fill="#414142" d="M43.352,44.705"/>
		<g>
			<path fill="#414142" d="M81.664,39.513c-0.672-4.848-1.306-9.427-6.895-9.427h-5.616c3.456,1.699,4.072,5.987,4.625,9.868
				c0.69,4.823,1.342,9.379,6.735,9.379l0,0h5.707C82.797,47.678,82.224,43.542,81.664,39.513z"/>
			<path fill="#414142" d="M24.967,32.705c-0.786-6.674-1.601-13.578-6.493-13.578h-7.22c4.609,3.112,5.182,9.558,5.688,15.296
				c0.509,5.695,0.945,10.611,5.207,10.611c1.42,0,4.56-0.009,6.628-0.018C26.192,43.127,25.595,38.038,24.967,32.705z"/>
			<path fill="#414142" d="M48.112,29.219c-0.207-9.636-0.405-18.737-5.955-18.737c-2.924,0.007-5.509,0.007-7.333,0.003
				c4.07,2.597,4.264,11.442,4.448,20.045c0.201,9.228,0.409,18.772,5.64,18.772h0.003h0.125h7.586
				c0.047-0.007,0.098-0.009,0.145-0.01C48.49,46.631,48.297,37.793,48.112,29.219z"/>
			<path fill="#414142" d="M70.033,14.447C70.1,9.88,70.169,5.159,68.075,3.03c-0.829-0.834-1.936-1.238-3.391-1.238
				c-1.897,0-4.167-0.007-5.864-0.01c1.272,0.736,2.318,1.943,2.78,3.338c0.731,2.2,0.702,5.48,0.669,8.954
				c-0.045,5.017-0.09,10.204,2.123,12.436c0.782,0.79,1.799,1.166,3.108,1.121l5.861-0.017
				C69.867,25.6,69.952,19.947,70.033,14.447z"/>
		</g>
		<path fill="#414142" d="M0.687,49.333h6.338c1.329,0,2.363-0.391,3.163-1.2c2.34-2.36,2.288-8.028,2.236-13.508
			c-0.041-4.382-0.084-8.875,1.059-12.02c-0.878-1.455-2.065-2.656-3.697-3.457H9.584c-1.257,0-2.242,0.372-3.008,1.144
			C4.27,22.614,4.51,28.296,4.343,33.784C4.309,34.894,4.694,48.319,0.687,49.333z"/>
		<path fill="#414142" d="M32.711,10.526c-4.327,0.652-4.805,9.173-5.266,17.427c-0.211,3.732-0.414,7.352-0.936,10.365
			c0.666,3.554,1.741,6.254,4.079,6.662c0.391,0.016,0.699,0.025,0.86,0.025h0.015c3.82-0.526,4.124-7.414,4.442-14.704
			c0.201-4.613,0.421-9.563,1.553-13.535C36.686,13.288,35.292,10.861,32.711,10.526z"/>
		<path fill="#414142" d="M79.896,0c-5.365,0-5.791,6.518-6.242,13.416c-0.268,4.064-0.544,8.235-1.909,11.13
			c0.717,1.683,1.949,2.802,4.026,3.031c4.98-0.475,5.372-6.781,5.791-13.444C81.932,8.193,82.313,2.09,86.125,0H79.896z"/>
		<path fill="#414142" d="M60.887,5.359c-0.648-1.951-2.589-3.476-4.541-3.579c-0.317-0.004-0.51-0.006-0.516-0.006
			c-0.903,0-1.654,0.313-2.293,0.962c-3.005,3.031-2.912,12.746-2.826,22.14c0.058,6.468,0.119,13.047-0.802,17.862
			c0.742,3.368,2.066,5.815,4.49,6.44c0.084,0.025,0.564,0.065,0.742,0.025c0.594-0.149,1.119-0.454,1.585-0.924
			c3.029-3.066,2.924-12.625,2.823-21.871c-0.086-7.708-0.169-15.663,1.47-20.589C60.979,5.66,60.934,5.503,60.887,5.359z"/>
	</g>
	<g>
		<path fill="#414142" d="M10.85,60.803c-0.084-1.584-0.186-3.487-0.169-4.902h-0.05c-0.388,1.331-0.859,2.746-1.433,4.313
			l-2.004,5.509H6.082l-1.836-5.407c-0.539-1.601-0.994-3.066-1.313-4.414H2.898c-0.034,1.415-0.118,3.318-0.219,5.021l-0.304,4.868
			H0.978L1.77,54.436h1.87l1.938,5.491c0.472,1.398,0.859,2.645,1.146,3.824h0.05c0.287-1.146,0.691-2.393,1.196-3.824l2.021-5.491
			h1.87l0.707,11.354h-1.432L10.85,60.803z"/>
		<path fill="#414142" d="M16.288,54.436v11.354h-1.466V54.436H16.288z"/>
		<path fill="#414142" d="M18.848,54.436h1.466v5.475h0.051c0.303-0.438,0.605-0.843,0.893-1.213l3.47-4.262h1.819l-4.11,4.817
			l4.431,6.536h-1.735l-3.739-5.576l-1.078,1.247v4.329h-1.466V54.436z"/>
		<path fill="#414142" d="M33.382,62.218l-1.179,3.571h-1.517l3.857-11.354h1.77l3.874,11.354h-1.566l-1.213-3.571H33.382z
			 M37.104,61.072l-1.111-3.268c-0.253-0.742-0.421-1.416-0.59-2.072H35.37c-0.169,0.674-0.354,1.364-0.573,2.055l-1.111,3.285
			H37.104z"/>
		<path fill="#414142" d="M48.626,57.636c-0.034,0.59-0.068,1.247-0.068,2.24v4.733c0,1.87-0.37,3.016-1.162,3.724
			c-0.791,0.741-1.938,0.977-2.965,0.977c-0.977,0-2.055-0.235-2.712-0.674l0.37-1.128c0.539,0.336,1.382,0.64,2.393,0.64
			c1.516,0,2.628-0.792,2.628-2.847v-0.91h-0.034c-0.454,0.758-1.33,1.365-2.594,1.365c-2.021,0-3.471-1.719-3.471-3.977
			c0-2.762,1.803-4.329,3.673-4.329c1.415,0,2.19,0.741,2.544,1.415h0.033l0.067-1.229H48.626z M47.093,60.854
			c0-0.253-0.018-0.472-0.084-0.674c-0.27-0.859-0.994-1.566-2.072-1.566c-1.415,0-2.426,1.195-2.426,3.082
			c0,1.601,0.809,2.932,2.408,2.932c0.91,0,1.735-0.573,2.056-1.517c0.084-0.253,0.118-0.539,0.118-0.792V60.854z"/>
		<path fill="#414142" d="M51.841,61.982c0.033,2.004,1.313,2.83,2.796,2.83c1.062,0,1.701-0.186,2.257-0.422l0.253,1.062
			c-0.522,0.235-1.415,0.505-2.712,0.505c-2.51,0-4.01-1.65-4.01-4.109c0-2.46,1.449-4.397,3.824-4.397
			c2.662,0,3.369,2.342,3.369,3.841c0,0.304-0.033,0.539-0.051,0.691H51.841z M56.187,60.921c0.017-0.943-0.388-2.409-2.055-2.409
			c-1.5,0-2.156,1.381-2.274,2.409H56.187z"/>
		<path fill="#414142" d="M59.452,59.843c0-0.843-0.017-1.533-0.067-2.207h1.314l0.084,1.348h0.034
			c0.404-0.774,1.348-1.533,2.695-1.533c1.128,0,2.88,0.674,2.88,3.471v4.868H64.91v-4.7c0-1.313-0.488-2.409-1.887-2.409
			c-0.977,0-1.735,0.691-1.987,1.517c-0.067,0.186-0.102,0.438-0.102,0.69v4.902h-1.482V59.843z"/>
		<path fill="#414142" d="M74.61,65.486c-0.387,0.201-1.246,0.471-2.341,0.471c-2.46,0-4.06-1.667-4.06-4.16
			c0-2.51,1.718-4.33,4.379-4.33c0.877,0,1.651,0.22,2.056,0.422l-0.337,1.146c-0.354-0.202-0.91-0.388-1.719-0.388
			c-1.869,0-2.88,1.381-2.88,3.083c0,1.887,1.213,3.049,2.83,3.049c0.842,0,1.397-0.219,1.819-0.404L74.61,65.486z"/>
		<path fill="#414142" d="M77.186,57.636l1.786,4.817c0.186,0.539,0.387,1.18,0.521,1.668h0.034c0.151-0.488,0.32-1.111,0.522-1.701
			l1.617-4.784h1.566l-2.224,5.812c-1.062,2.797-1.786,4.229-2.796,5.104c-0.725,0.64-1.449,0.893-1.82,0.96l-0.37-1.246
			c0.37-0.118,0.859-0.354,1.297-0.725c0.404-0.32,0.91-0.893,1.247-1.65c0.067-0.152,0.117-0.27,0.117-0.354
			c0-0.084-0.033-0.202-0.101-0.388l-3.016-7.513H77.186z"/>
	</g>
</g>
</svg>
